<svg width="20" height="20" viewBox="0 0 20 20" fill="none" xmlns="http://www.w3.org/2000/svg">
<g clip-path="url(#clip0_1_1016)">
<path fill-rule="evenodd" clip-rule="evenodd" d="M4.30305 9.99998C4.30305 9.36487 4.40853 8.75598 4.5968 8.18487L1.30145 5.66843C0.65921 6.97243 0.297363 8.44176 0.297363 9.99998C0.297363 11.5569 0.658765 13.0253 1.30012 14.3284L4.59368 11.8071C4.40719 11.2386 4.30305 10.632 4.30305 9.99998Z" fill="#FBBC05"/>
<path fill-rule="evenodd" clip-rule="evenodd" d="M10.0891 4.2222C11.4688 4.2222 12.715 4.71109 13.6942 5.51109L16.5427 2.66664C14.8069 1.15553 12.5815 0.222198 10.0891 0.222198C6.2196 0.222198 2.89399 2.43509 1.30151 5.66842L4.59685 8.18487C5.35615 5.87998 7.52056 4.2222 10.0891 4.2222Z" fill="#EB4335"/>
<path fill-rule="evenodd" clip-rule="evenodd" d="M10.0891 15.7778C7.52056 15.7778 5.35615 14.12 4.59685 11.8151L1.30151 14.3311C2.89399 17.5649 6.2196 19.7778 10.0891 19.7778C12.4774 19.7778 14.7575 18.9298 16.4688 17.3409L13.3408 14.9226C12.4582 15.4786 11.3469 15.7778 10.0891 15.7778Z" fill="#34A853"/>
<path fill-rule="evenodd" clip-rule="evenodd" d="M19.4356 9.99998C19.4356 9.4222 19.3466 8.79998 19.213 8.2222H10.089V12H15.3409C15.0783 13.288 14.3635 14.2782 13.3407 14.9226L16.4687 17.3409C18.2664 15.6724 19.4356 13.1871 19.4356 9.99998Z" fill="#4285F4"/>
</g>
<defs>
<clipPath id="clip0_1_1016">
<rect width="20" height="20" fill="white"/>
</clipPath>
</defs>
</svg>
